# xmcd
#
# Track frame offsets:
#	150
#	19785
#	39136
#	58397
#	76645
#	95786
#	108763
#	127964
#	147273
#	169250
#	189963
#	203721
#
# Disc length: 3172 seconds
#
# Revision: 1
# Processed by: cddbd v1.5.2PL0 Copyright (c) Steve Scherf et al.
# Submitted via: EasyCDDAExtractor 11.9.9.666
#
DISCID=960c620c
DTITLE=Various Artist - 高原赞歌
DYEAR=1900
DGENRE=Pop
TTITLE0=青藏高原
TTITLE1=蒙古人
TTITLE2=山歌好比春江水
TTITLE3=走进西藏
TTITLE4=草原之夜
TTITLE5=八千里路云和月
TTITLE6=美丽的草原我的家
TTITLE7=你家在哪里
TTITLE8=鹰之恋
TTITLE9=草原夜色美
TTITLE10=嫂子颂
TTITLE11=天堂
EXTD=
EXTT0=
EXTT1=
EXTT2=
EXTT3=
EXTT4=
EXTT5=
EXTT6=
EXTT7=
EXTT8=
EXTT9=
EXTT10=
EXTT11=
PLAYORDER=
